<svg xmlns="http://www.w3.org/2000/svg" viewBox="0 0 64 64">
  <!-- Kidney shape - teal -->
  <path d="M20 8c-8 0-14 5.5-14 12.5 0 5 3 8 3 12.5S5 41 5 48c0 9.5 7 14 15 14s13-4.5 13-11c0-5-3-8.5-3-13.5s3-8 3-12.5C33 13.5 28 8 20 8z" fill="#1a7a72"/>
  <!-- Kidney inner curve -->
  <path d="M22 18c-2.5 0-4.5 2-4.5 5 0 2 1.5 3.5 1.5 6s-1.5 4-1.5 6.5c0 3.5 2 5.5 4.5 5.5" fill="none" stroke="#0f5f58" stroke-width="1.5" stroke-linecap="round"/>
  <!-- Upward arrow -->
  <path d="M18 50 L32 28 L38 20" fill="none" stroke="#2dd4bf" stroke-width="4" stroke-linecap="round" stroke-linejoin="round"/>
  <polygon points="38,12 44,22 32,22" fill="#2dd4bf"/>
  <!-- Crosshair/target - upper right -->
  <circle cx="49" cy="15" r="9" fill="none" stroke="#374151" stroke-width="2.5"/>
  <circle cx="49" cy="15" r="5" fill="none" stroke="#374151" stroke-width="2"/>
  <circle cx="49" cy="15" r="2.5" fill="#dc2626"/>
  <line x1="49" y1="3" x2="49" y2="9" stroke="#374151" stroke-width="2" stroke-linecap="round"/>
  <line x1="49" y1="21" x2="49" y2="27" stroke="#374151" stroke-width="2" stroke-linecap="round"/>
  <line x1="37" y1="15" x2="43" y2="15" stroke="#374151" stroke-width="2" stroke-linecap="round"/>
  <line x1="55" y1="15" x2="61" y2="15" stroke="#374151" stroke-width="2" stroke-linecap="round"/>
</svg>
