<svg xmlns="http://www.w3.org/2000/svg" viewBox="0 0 32 32">
  <defs>
    <linearGradient id="grad" x1="0%" y1="0%" x2="100%" y2="100%">
      <stop offset="0%" stop-color="#0d9488"/>
      <stop offset="100%" stop-color="#1d4ed8"/>
    </linearGradient>
    <linearGradient id="kidney" x1="0%" y1="0%" x2="100%" y2="100%">
      <stop offset="0%" stop-color="#ffffff" stop-opacity="0.95"/>
      <stop offset="100%" stop-color="#e0f2fe" stop-opacity="0.9"/>
    </linearGradient>
  </defs>
  <!-- Background -->
  <rect width="32" height="32" rx="7" fill="url(#grad)"/>
  <!-- Kidney shape (stylized) -->
  <path d="M16 6c-3.5 0-5.5 2-5.5 4.5 0 1.8 1 3 1 4.5s-1.2 3-1.2 5c0 3.5 2.5 6 5.7 6 3.2 0 5.7-2.5 5.7-6 0-2-1.2-3.5-1.2-5s1-2.7 1-4.5C21.5 8 19.5 6 16 6z" fill="url(#kidney)"/>
  <!-- Shield/fist accent -->
  <path d="M14 14.5c0-.8.9-1.5 2-1.5s2 .7 2 1.5v4c0 .8-.9 1.5-2 1.5s-2-.7-2-1.5v-4z" fill="url(#grad)" opacity="0.7"/>
  <!-- Spark/fight accent -->
  <path d="M12.5 10l1.5 1.5L12.5 13M19.5 10l-1.5 1.5 1.5 1.5" stroke="white" stroke-width="0.8" fill="none" stroke-linecap="round" stroke-linejoin="round" opacity="0.6"/>
</svg>
